# xmcd CD database file
#
# Track frame offsets:
#	150
#	14537
#	30983
#	46501
#	57463
#	77202
#	94260
#	106659
#	123223
#	138166
#
# Disc length: 2082 seconds
#
# Revision: 0
# Processed by: cddbd v1.4PL0 Copyright (c) Steve Scherf et al.
# Submitted via: CDex 1.40PlusFr
#
DISCID=7108200a
DTITLE=Jean Rock Cummings - L'histoire du musicien
DYEAR=1900
DGENRE=Country
TTITLE0=L'histoire du musicien
TTITLE1=Gars romantique
TTITLE2=6 heures moins quart
TTITLE3=Le monde a bien changé
TTITLE4=Tant d'amour blesse
TTITLE5=Je cherche l'amour
TTITLE6=Pourquoi pleurer
TTITLE7=Un soir de février
TTITLE8=Le p'tit rocher
TTITLE9=Je t'atends
EXTD=ID3G: 2
EXTT0=
EXTT1=
EXTT2=
EXTT3=
EXTT4=
EXTT5=
EXTT6=
EXTT7=
EXTT8=
EXTT9=
PLAYORDER=
